HIERARCHY
ROOT Hips
{
	OFFSET 0.000000 0.000000 0.000000
	CHANNELS 6 Xposition Yposition Zposition Zrotation Yrotation Xrotation 
	JOINT LHipJoint
	{
		OFFSET 0.000000 0.000000 0.000000
		CHANNELS 3 Zrotation Yrotation Xrotation
		JOINT LeftUpLeg
		{
			OFFSET 1.363060 -1.794630 0.839290
			CHANNELS 3 Zrotation Yrotation Xrotation
			JOINT LeftLeg
			{
				OFFSET 2.448110 -6.726130 0.000000
				CHANNELS 3 Zrotation Yrotation Xrotation
				JOINT LeftFoot
				{
					OFFSET 2.562200 -7.039590 0.000000
					CHANNELS 3 Zrotation Yrotation Xrotation
					JOINT LeftToeBase
					{
						OFFSET 0.157640 -0.433110 2.322550
						CHANNELS 3 Zrotation Yrotation Xrotation
						End Site
						{
							OFFSET 0.000000 0.000000 0.000000
						}
					}
				}
			}
		}
	}
	JOINT RHipJoint
	{
		OFFSET 0.000000 0.000000 0.000000
		CHANNELS 3 Zrotation Yrotation Xrotation
		JOINT RightUpLeg
		{
			OFFSET -1.305520 -1.794630 0.839290
			CHANNELS 3 Zrotation Yrotation Xrotation
			JOINT RightLeg
			{
				OFFSET -2.542530 -6.985550 0.000000
				CHANNELS 3 Zrotation Yrotation Xrotation
				JOINT RightFoot
				{
					OFFSET -2.568260 -7.056230 0.000000
					CHANNELS 3 Zrotation Yrotation Xrotation
					JOINT RightToeBase
					{
						OFFSET -0.164730 -0.452590 2.363150
						CHANNELS 3 Zrotation Yrotation Xrotation
						End Site
						{
							OFFSET 0.000000 0.000000 0.000000
						}
					}
				}
			}
		}
	}
	JOINT LowerBack
	{
		OFFSET 0.000000 0.000000 0.000000
		CHANNELS 3 Zrotation Yrotation Xrotation
		JOINT Spine
		{
			OFFSET 0.028270 2.035590 -0.193380
			CHANNELS 3 Zrotation Yrotation Xrotation
			JOINT Spine1
			{
				OFFSET 0.056720 2.048850 -0.042750
				CHANNELS 3 Zrotation Yrotation Xrotation
				JOINT Neck
				{
					OFFSET 0.000000 0.000000 0.000000
					CHANNELS 3 Zrotation Yrotation Xrotation
					JOINT Neck1
					{
						OFFSET -0.054170 1.746240 0.172020
						CHANNELS 3 Zrotation Yrotation Xrotation
						JOINT Head
						{
							OFFSET 0.104070 1.761360 -0.123970
							CHANNELS 3 Zrotation Yrotation Xrotation
							End Site
							{
								OFFSET 0.000000 0.000000 0.000000
							}
						}
					}
				}
				JOINT LeftShoulder
				{
					OFFSET 0.000000 0.000000 0.000000
					CHANNELS 3 Zrotation Yrotation Xrotation
					JOINT LeftArm
					{
						OFFSET 3.362410 1.200890 -0.311210
						CHANNELS 3 Zrotation Yrotation Xrotation
						JOINT LeftForeArm
						{
							OFFSET 4.983000 -0.000000 -0.000000
							CHANNELS 3 Zrotation Yrotation Xrotation
							JOINT LeftHand
							{
								OFFSET 3.483560 -0.000000 -0.000000
								CHANNELS 3 Zrotation Yrotation Xrotation
								JOINT LeftFingerBase
								{
									OFFSET 0.000000 0.000000 0.000000
									CHANNELS 3 Zrotation Yrotation Xrotation
									JOINT LeftHandIndex1
									{
										OFFSET 0.715260 -0.000000 -0.000000
										CHANNELS 3 Zrotation Yrotation Xrotation
										End Site
										{
											OFFSET 0.000000 0.000000 0.000000
										}
									}
								}
								JOINT LThumb
								{
									OFFSET 0.000000 0.000000 0.000000
									CHANNELS 3 Zrotation Yrotation Xrotation
									End Site
									{
										OFFSET 0.000000 0.000000 0.000000
									}
								}
							}
						}
					}
				}
				JOINT RightShoulder
				{
					OFFSET 0.000000 0.000000 0.000000
					CHANNELS 3 Zrotation Yrotation Xrotation
					JOINT RightArm
					{
						OFFSET -3.136600 1.374050 -0.404650
						CHANNELS 3 Zrotation Yrotation Xrotation
						JOINT RightForeArm
						{
							OFFSET -5.241900 -0.000000 -0.000000
							CHANNELS 3 Zrotation Yrotation Xrotation
							JOINT RightHand
							{
								OFFSET -3.444170 -0.000000 -0.000000
								CHANNELS 3 Zrotation Yrotation Xrotation
								JOINT RightFingerBase
								{
									OFFSET 0.000000 0.000000 0.000000
									CHANNELS 3 Zrotation Yrotation Xrotation
									JOINT RightHandIndex1
									{
										OFFSET -0.622530 -0.000000 -0.000000
										CHANNELS 3 Zrotation Yrotation Xrotation
										End Site
										{
											OFFSET 0.000000 0.000000 0.000000
										}
									}
								}
								JOINT RThumb
								{
									OFFSET 0.000000 0.000000 0.000000
									CHANNELS 3 Zrotation Yrotation Xrotation
									End Site
									{
										OFFSET 0.000000 0.000000 0.000000
									}
								}
							}
						}
					}
				}
			}
		}
	}
}
MOTION
Frames: 9
Frame Time: 0.033333
-0.025040 17.198964 -0.025040 -0.008609 -22.010240 4.081727 -0.537602 14.281001 13.747705 -16.968477 -20.274469 -12.382440 28.584179 -24.158600 -28.229442 -8.635165 7.780407 85.130174 0.000000 0.000000 0.000000 1.787113 -31.229307 -14.175875 49.382107 10.416574 -1.146563 -27.657308 3.159610 36.079734 0.421017 8.627802 -17.412332 0.000000 0.000000 0.000000 -2.398589 5.723850 5.974409 -4.717179 4.805626 13.535790 6.446399 4.757798 -15.355386 12.162629 -0.876689 -10.441915 -2.132862 -0.142181 -7.823230 0.000000 0.000000 0.000000 -3.635159 14.104064 17.313913 -78.343801 -5.721161 -29.103868 -143.174225 -68.295775 179.378230 6.103202 -5.094270 -0.320228 6.178149 -5.050253 -0.000000 0.000000 0.000000 0.000000 0.000000 0.000000 0.000000 -0.822507 -14.719158 2.679458 56.990484 12.471909 17.182562 49.437909 58.136090 0.192117 1.527088 6.581357 0.095799 1.525479 6.584363 0.000000 0.000000 0.000000 0.000000 0.000000 0.000000 0.000000 
-0.021470 17.225047 0.127634 0.093881 -21.745958 3.852042 0.652603 13.970143 13.015168 -19.151059 -19.952039 -10.502850 28.349856 -24.158972 -27.543788 -8.434751 7.339554 83.698098 0.000000 0.000000 0.000000 0.935872 -30.470631 -14.414403 48.367110 9.416878 -0.691648 -26.132039 2.134540 35.965575 0.451756 8.710128 -18.880043 0.000000 0.000000 0.000000 -2.596392 5.598131 6.738910 -4.676899 4.693133 12.364970 6.384764 4.630202 -14.540847 11.921066 -0.881303 -10.038331 -2.066636 -0.126630 -7.445240 0.000000 0.000000 0.000000 -3.228144 13.749542 17.489222 -78.554125 -5.870577 -29.022070 -143.230331 -68.517131 179.417931 6.086049 -5.203505 -0.299701 6.156905 -5.162202 -0.000000 0.000000 0.000000 0.000000 0.000000 0.000000 0.000000 -1.093583 -14.601828 2.623246 57.581252 12.576061 17.237741 49.670254 58.652827 0.187168 1.488961 6.444701 0.093340 1.487387 6.447601 0.000000 0.000000 0.000000 0.000000 0.000000 0.000000 0.000000 
-0.015631 17.252948 0.279696 0.176655 -21.411046 3.614579 1.789049 13.646232 12.224758 -21.220830 -19.507005 -8.656746 27.934270 -24.111535 -26.810193 -8.101273 6.984658 82.273092 0.000000 0.000000 0.000000 0.103897 -29.601446 -14.630064 47.257362 8.402334 -0.239343 -24.505815 1.055567 35.760086 0.498770 8.738528 -20.276340 0.000000 0.000000 0.000000 -2.772906 5.451051 7.508353 -4.604676 4.561976 11.233397 6.309500 4.487116 -13.741962 11.668792 -0.884545 -9.649994 -1.993293 -0.111377 -7.060237 0.000000 0.000000 0.000000 -2.817698 13.386113 17.660990 -78.765503 -6.022296 -28.934808 -143.287612 -68.742173 179.458791 6.060531 -5.312123 -0.278599 6.127201 -5.273542 -0.000000 0.000000 0.000000 0.000000 0.000000 0.000000 0.000000 -1.376975 -14.495797 2.558610 58.175549 12.682223 17.294055 49.908632 59.169490 0.182435 1.452579 6.303268 0.090989 1.451060 6.306062 0.000000 0.000000 0.000000 0.000000 0.000000 0.000000 0.000000 
-0.007572 17.282222 0.430745 0.081551 -20.280824 2.990911 3.033882 13.093524 11.416853 -23.182926 -18.789798 -6.477794 27.101063 -24.054015 -26.165932 -7.495269 6.765778 81.010727 0.000000 0.000000 0.000000 -1.165756 -27.500106 -15.898150 45.670126 5.801196 1.424448 -22.075366 -0.932086 34.705747 0.830629 8.145304 -21.887653 0.000000 0.000000 0.000000 -2.740962 4.887752 8.940310 -4.429522 4.047880 10.048906 5.766038 4.041523 -13.393377 11.865686 -0.866139 -9.093005 -1.705697 -0.066539 -6.657949 0.000000 0.000000 0.000000 -1.831757 13.343744 17.954000 -78.945628 -5.977498 -28.823016 -143.247193 -68.920896 179.502956 6.026093 -5.426318 -0.255843 6.088320 -5.390484 -0.000000 0.000000 0.000000 0.000000 0.000000 0.000000 0.000000 -3.248590 -15.420661 1.262159 59.997542 15.222802 10.646447 55.605831 45.507310 0.088909 1.476041 6.090462 0.044221 1.471567 6.092798 0.000000 0.000000 0.000000 0.000000 0.000000 0.000000 0.000000 
0.002142 17.312459 0.580414 -0.049766 -18.937674 2.330370 4.192107 12.427531 10.517385 -24.959600 -17.948731 -4.310588 26.107956 -23.949005 -25.474959 -6.812626 6.634384 79.772614 0.000000 0.000000 0.000000 -2.422517 -25.016066 -17.218941 43.807757 3.001683 3.248399 -19.297607 -3.054953 33.277193 1.169107 7.448227 -23.382069 0.000000 0.000000 0.000000 -2.653760 4.258192 10.437958 -4.221873 3.473472 8.866359 5.270075 3.565088 -13.526776 12.004063 -0.863837 -8.120704 -1.472728 -0.034936 -6.135839 0.000000 0.000000 0.000000 -0.792801 13.190919 18.525344 -79.147716 -5.700060 -28.728667 -143.234944 -69.109588 179.547388 5.986253 -5.539450 -0.232968 6.044032 -5.506325 -0.000000 0.000000 0.000000 0.000000 0.000000 0.000000 0.000000 -5.077496 -16.708456 -1.112963 61.406007 18.738988 5.376840 58.276538 28.143565 0.000617 1.332628 5.436271 0.000141 1.327129 5.438161 0.000000 0.000000 0.000000 0.000000 0.000000 0.000000 0.000000 
0.014615 17.343633 0.729560 -0.191742 -17.663535 1.812581 5.182597 11.758318 9.577944 -26.466387 -17.108701 -2.397080 25.059538 -23.778051 -24.697348 -6.142112 6.558806 78.490221 0.000000 0.000000 0.000000 -3.478197 -22.646761 -18.163736 41.826901 0.569459 4.778125 -16.360217 -4.974118 31.688343 1.414750 6.897211 -24.731402 0.000000 0.000000 0.000000 -2.608176 3.742045 11.699984 -3.810017 3.021744 7.656566 4.977169 3.179501 -13.241118 11.840965 -0.894399 -7.373881 -1.468096 -0.039432 -5.560472 0.000000 0.000000 0.000000 -0.215435 12.776073 18.956193 -79.347685 -5.575248 -28.666990 -143.258582 -69.336302 179.591248 5.944443 -5.648476 -0.210388 5.997770 -5.618046 -0.000000 0.000000 0.000000 0.000000 0.000000 0.000000 0.000000 -5.903032 -17.250515 -2.425914 62.194314 20.448260 4.115766 58.842349 20.791178 -0.024707 1.184230 4.723896 -0.012465 1.179604 4.725474 0.000000 0.000000 0.000000 0.000000 0.000000 0.000000 0.000000 
0.028798 17.374971 0.877232 -0.324969 -16.277213 1.292679 6.058951 11.020280 8.565801 -27.809169 -16.190416 -0.547791 23.899555 -23.542290 -23.877866 -5.430853 6.562487 77.237582 0.000000 0.000000 0.000000 -4.435232 -20.065964 -19.038872 39.622883 -1.884278 6.374660 -13.181686 -6.841946 29.791286 1.655291 6.297195 -25.913684 0.000000 0.000000 0.000000 -2.531483 3.208258 12.937375 -3.393868 2.565814 6.471460 4.691677 2.783561 -13.075863 11.625827 -0.925843 -6.510097 -1.476308 -0.047257 -4.955752 0.000000 0.000000 0.000000 0.351583 12.247525 19.467906 -79.549906 -5.409478 -28.616504 -143.293117 -69.577793 179.635785 5.894378 -5.755062 -0.187480 5.943201 -5.727316 -0.000000 0.000000 0.000000 0.000000 0.000000 0.000000 0.000000 -6.657077 -17.834112 -4.016528 63.082350 22.331951 3.325029 59.132740 12.792071 -0.039374 1.053342 3.908169 -0.019751 1.049973 3.909428 -0.000000 0.000000 0.000000 0.000000 0.000000 0.000000 0.000000 
0.043881 17.406116 1.023413 -0.432800 -14.788656 0.828044 6.803819 10.198006 7.451394 -28.994027 -15.218905 1.210800 22.664212 -23.237477 -23.013476 -4.703464 6.634838 76.010610 0.000000 0.000000 0.000000 -5.264481 -17.343212 -19.828304 37.224197 -4.299635 7.992871 -9.800970 -8.596671 27.619399 1.886906 5.653937 -26.910623 0.000000 0.000000 0.000000 -2.430229 2.737533 14.240891 -2.851243 2.212240 4.939638 4.053074 2.449154 -12.451958 10.421211 -0.451281 -4.617552 0.370728 0.270848 -6.805750 0.000000 0.000000 0.000000 0.984280 11.326628 19.956069 -79.673355 -5.504653 -28.565938 -143.405070 -69.856642 179.681088 5.820624 -5.850159 -0.164205 5.864909 -5.825119 0.000000 0.000000 0.000000 0.000000 0.000000 0.000000 0.000000 -6.816265 -18.729108 -5.563267 63.940198 23.875001 2.929547 60.713168 10.122650 0.544700 -2.285554 -10.522037 0.273668 -2.331912 -10.522714 -0.000000 0.000000 0.000000 0.000000 0.000000 0.000000 0.000000 
0.059878 17.436787 1.167843 -0.508160 -13.251189 0.384977 7.423103 9.325985 6.285497 -30.028382 -14.207115 2.877009 21.377035 -22.863670 -22.113257 -3.971685 6.768053 74.815823 0.000000 0.000000 0.000000 -5.943672 -14.537935 -20.465189 34.659744 -6.630199 9.623914 -6.291266 -10.166830 25.222535 2.107416 4.980142 -27.702937 0.000000 0.000000 0.000000 -2.322088 2.308726 15.457143 -2.318845 1.912248 3.517369 3.501555 2.153796 -11.988403 9.214008 0.008321 -2.725314 2.025749 0.595487 -8.497134 0.000000 0.000000 0.000000 1.530450 10.253662 20.516917 -79.803273 -5.580955 -28.498464 -143.520012 -70.149569 179.727826 5.734595 -5.941857 -0.140219 5.774212 -5.919553 0.000000 0.000000 0.000000 0.000000 0.000000 0.000000 0.000000 -6.789871 -19.557158 -7.278193 65.014394 25.387960 3.256758 61.692835 7.199487 2.012697 -4.701915 -23.892518 1.030420 -5.064246 -23.884801 0.000000 0.000000 0.000000 0.000000 0.000000 0.000000 0.000000 
